<?xml version="1.0" encoding="UTF-8"?>
<svg id="Layer_1" xmlns="http://www.w3.org/2000/svg" version="1.1" viewBox="0 0 24 24">
  <!-- Generator: Adobe Illustrator 29.6.0, SVG Export Plug-In . SVG Version: 2.1.0 Build 27)  -->
  <defs>
    <style>
      .st0 {
        fill: #f4eded;
      }

      .st1 {
        fill: #dddd2a;
      }
    </style>
  </defs>
  <polygon class="st0" points="17.3 3.2 17 11.3 3.3 12.2 2.2 5.4 8.2 1.9 17.3 3.2"/>
  <polygon class="st1" points="5.7 12 5.7 22 16.2 22.5 16.7 6.8 5.7 12"/>
  <g id="Layer_11" data-name="Layer_1">
    <path d="M6.9,21.5h8.9v-12.6h-2.5c-.6,0-1.1.1-1.5.4s-.8.7-1.4,1.3c-.4.5-.9.9-1.5,1.4s-1.2.9-2,1.1c0,0,0,8.4,0,8.4ZM4.4,21.5v-8.4c-1.1-.3-2-.9-2.7-1.8s-1.1-1.9-1.1-3.1.3-2.1,1-3c.7-.9,1.5-1.5,2.5-1.8.5-1,1.2-1.8,2.2-2.5S8.3,0,9.5,0s1.4.1,2.1.4c.7.3,1.2.6,1.8,1,.2,0,.4,0,.6-.1s.4,0,.6,0c1.4,0,2.6.5,3.6,1.5,1,1,1.5,2.2,1.5,3.6s0,.9-.2,1.3c-.2.4-.3.8-.5,1.2h2c.7,0,1.3.2,1.8.7s.7,1.1.7,1.8v7.6c0,.7-.2,1.3-.7,1.8s-1.1.7-1.8.7h-2.5c0,.7-.2,1.3-.7,1.8s-1.1.7-1.8.7H6.9c-.7,0-1.3-.2-1.8-.7s-.7-1.1-.7-1.8ZM3.1,8.2c0,.7.2,1.3.7,1.8.5.5,1.1.7,1.8.7s1.2-.2,1.7-.7,1-.9,1.5-1.5c.5-.6,1.1-1.1,1.8-1.6s1.5-.7,2.6-.7h3.8c0-.7-.2-1.3-.7-1.8s-1.1-.7-1.8-.7-1,0-1.3.2l-.5.2-1-.8c-.2-.2-.5-.4-.9-.6s-.8-.3-1.3-.3-1.3.2-1.8.5-1,.8-1.3,1.5l-.4.9-1,.3c-.5.2-.9.5-1.3.9s-.5.9-.5,1.5v.2ZM18.3,18.9h2.5v-7.6h-2.5v7.6ZM6.9,21.5h8.9H6.9Z"/>
  </g>
</svg>